<svg width="1440" height="1024" viewBox="0 0 1440 1024" fill="none" xmlns="http://www.w3.org/2000/svg">
<g clip-path="url(#clip0)">
<path d="M-13 336V502.942L1472.74 551C1472.74 551 1509.33 138.001 1472.74 139.002C1436.15 140.003 1250.72 442.219 1170.23 463.394C1089.74 484.569 1130.03 422.845 1074.38 415.837C1018.72 408.828 811.036 486.182 714.151 485.681C617.266 485.18 -13 336 -13 336Z" fill="#C4C4C4" stroke="#C4C4C4"/>
<path d="M457 360.774C457 394.631 374.5 423.136 320.855 439.863C293.539 448.38 571.852 452.436 685.238 439.863C798.625 427.29 853.773 376.591 917.682 360.774C981.591 344.956 1029.76 344.532 1043 364C1056.24 383.468 1043 389 1032.46 413.145C1026.77 426.169 1070.76 437.417 1106.09 439.793C1106.74 421.567 1122.08 406.321 1141.36 422.068C1160.11 437.385 1136.26 441.822 1106.09 439.793C1105.37 460.061 1122.84 484.013 1173.32 473.121C1269.18 452.436 1464 203 1464 203V624H-15.698L-21.8829 463.843C-29.6138 452.757 348.17 431.346 320.855 439.863C348.17 431.346 298.024 443.974 300 360.774C301.976 277.573 333.5 269.786 380 278.716C426.5 287.647 457 326.916 457 360.774Z" fill="#AF2D2D"/>
<path d="M320.855 439.863C374.5 423.136 457 394.631 457 360.774C457 326.916 426.5 287.647 380 278.716C333.5 269.786 301.976 277.573 300 360.774C298.024 443.974 348.17 431.346 320.855 439.863ZM320.855 439.863C293.539 448.38 571.852 452.436 685.238 439.863C798.625 427.29 853.773 376.591 917.682 360.774C981.591 344.956 1029.76 344.532 1043 364C1056.24 383.468 1043 389 1032.46 413.145C1021.91 437.289 1182.08 455.326 1141.36 422.068C1100.65 388.809 1077.45 493.806 1173.32 473.121C1269.18 452.436 1464 203 1464 203V624H-15.698L-21.8829 463.843C-29.6138 452.757 348.17 431.346 320.855 439.863Z" stroke="#AF2D2D"/>
</g>
<defs>
<clipPath id="clip0">
<rect width="1440" height="1024" fill="white"/>
</clipPath>
</defs>
</svg>
