<svg width="200" height="200" viewBox="0 0 200 200" fill="none" xmlns="http://www.w3.org/2000/svg">
<g opacity="0.6">
<path fill-rule="evenodd" clip-rule="evenodd" d="M92.8536 77.1123C96.0917 72.7485 97.2529 68.1494 93.5906 64.0898C85.3722 52.59 79.845 45.4785 76.3781 42.0538C69.7871 35.5429 58.9448 36.4236 53.2366 42.0482C50.1706 45.0692 49.1326 46.1066 45.9845 49.3042C28.4492 66.8489 39.1432 103.938 67.5715 132.394C95.9935 160.844 133.079 171.544 150.651 153.962C153.556 151.161 156.016 148.701 157.955 146.65C163.549 140.738 164.399 130.374 157.919 123.641C154.596 120.189 147.815 114.928 135.831 106.356C132.161 103.074 127.809 103.786 123.819 106.403C121.9 107.662 120.504 108.936 117.866 111.576L113.077 116.367C112.446 116.999 103.882 112.709 95.5673 104.387C87.2486 96.06 82.9622 87.4945 83.59 86.8668C84.8847 85.5722 86.4821 83.9739 88.3824 82.0718C89.2191 81.2342 89.6191 80.8288 90.1321 80.2896C91.2009 79.1663 92.0858 78.1469 92.8536 77.1123ZM121.911 125.206L126.701 120.414C128.153 118.961 129.093 118.067 129.858 117.452C140.356 124.99 146.436 129.731 148.919 132.311C150.41 133.86 150.179 136.687 148.883 138.057C147.089 139.953 144.759 142.284 141.899 145.043C130.536 156.41 100.6 147.773 76.4074 123.557C52.2076 99.3336 43.5747 69.3928 54.8516 58.1096C57.987 54.9252 58.9804 53.9323 62.0026 50.9545C63.1358 49.8379 66.2224 49.5872 67.6009 50.9489C70.27 53.5856 75.2213 59.9253 82.5048 70.0712C82.1278 70.5393 81.6568 71.0683 81.0837 71.6706C80.6631 72.1127 80.3126 72.4679 79.5465 73.2348C77.6477 75.1355 76.0518 76.7323 74.7589 78.0251C66.6142 86.1691 73.5505 100.03 86.7315 113.224C99.9034 126.409 113.769 133.353 121.911 125.206Z" fill="black"/>
</g>
</svg>
