<svg width="150" height="150" viewBox="0 0 150 150" fill="none" xmlns="http://www.w3.org/2000/svg">
<g id="24 / call / call-calling">
<path id="icon" fill-rule="evenodd" clip-rule="evenodd" d="M67.8539 52.1119C71.0921 47.7481 72.2533 43.149 68.591 39.0894C60.3725 27.5896 54.8454 20.4781 51.3785 17.0534C44.7875 10.5425 33.9452 11.4232 28.2369 17.0478C25.1709 20.0688 24.133 21.1062 20.9849 24.3038C3.44958 41.8485 14.1435 78.9375 42.5719 107.394C70.9939 135.844 108.079 146.543 125.651 128.962C128.556 126.161 131.016 123.7 132.956 121.65C138.55 115.737 139.399 105.373 132.919 98.6402C129.597 95.1882 122.815 89.9279 110.832 81.3559C107.161 78.0739 102.809 78.7852 98.8197 81.4028C96.9006 82.6618 95.5039 83.9355 92.8666 86.5754L88.0776 91.367C87.4469 91.9982 78.8819 87.7088 70.5677 79.3865C62.249 71.0596 57.9626 62.4941 58.5904 61.8664C59.8851 60.5718 61.4825 58.9735 63.3827 57.0714C64.2195 56.2338 64.6195 55.8284 65.1325 55.2892C66.2013 54.1659 67.0862 53.1465 67.8539 52.1119ZM96.9116 100.206L101.702 95.4136C103.153 93.9607 104.094 93.0674 104.859 92.4515C115.357 99.9903 121.437 104.731 123.92 107.311C125.411 108.86 125.179 111.687 123.883 113.057C122.089 114.953 119.759 117.284 116.899 120.043C105.536 131.41 75.6001 122.773 51.4078 98.5572C27.2079 74.3335 18.575 44.3928 29.852 33.1096C32.9874 29.9252 33.9808 28.9323 37.003 25.9544C38.1361 24.8379 41.2228 24.5871 42.6012 25.9488C45.2704 28.5855 50.2216 34.9252 57.5052 45.0711C57.1281 45.5392 56.6572 46.0683 56.0841 46.6706C55.6634 47.1127 55.313 47.4679 54.5469 48.2348C52.6481 50.1354 51.0522 51.7322 49.7593 53.025C41.6146 61.169 48.5509 75.0298 61.7318 88.2237C74.9038 101.409 88.7697 108.353 96.9116 100.206ZM85.3448 12.9335C112.365 16.2087 133.791 37.634 137.066 64.6547L124.72 66.7125C122.336 44.9477 105.052 27.6638 83.287 25.2799L85.3448 12.9335ZM81.2277 37.6374C97.7372 39.114 110.886 52.2628 112.363 68.7723L99.9765 70.8367C99.4509 59.5811 90.4189 50.5491 79.1633 50.0235L81.2277 37.6374Z" fill="black"/>
</g>
</svg>
