<svg width="200" height="200" viewBox="0 0 200 200" fill="none" xmlns="http://www.w3.org/2000/svg">
<g opacity="1.0">
<path fill-rule="evenodd" clip-rule="evenodd" d="M127.387 68.75L138.902 91.7796L156.25 103.345V125H148.933C146.359 117.718 139.414 112.5 131.25 112.5C123.086 112.5 116.141 117.718 113.567 125H86.433C83.8591 117.718 76.9138 112.5 68.7499 112.5C60.5861 112.5 53.6408 117.718 51.0669 125H43.7499V68.75H127.387ZM156.25 137.5H148.933C146.359 144.782 139.414 150 131.25 150C123.086 150 116.141 144.782 113.567 137.5H86.433C83.859 144.782 76.9138 150 68.7499 150C60.5861 150 53.6408 144.782 51.0669 137.5H43.7499C36.8464 137.5 31.2499 131.904 31.2499 125V68.75C31.2499 61.8464 36.8464 56.25 43.7499 56.25H127.387C132.122 56.25 136.45 58.925 138.568 63.1598L148.598 83.2204L168.75 96.6551V125C168.75 131.904 163.154 137.5 156.25 137.5ZM74.9999 131.25C74.9999 134.702 72.2017 137.5 68.7499 137.5C65.2981 137.5 62.4999 134.702 62.4999 131.25C62.4999 127.798 65.2981 125 68.7499 125C72.2017 125 74.9999 127.798 74.9999 131.25ZM137.5 131.25C137.5 134.702 134.702 137.5 131.25 137.5C127.798 137.5 125 134.702 125 131.25C125 127.798 127.798 125 131.25 125C134.702 125 137.5 127.798 137.5 131.25Z" fill="black"/>
</g>
</svg>
