<svg width="150" height="150" viewBox="0 0 150 150" fill="none" xmlns="http://www.w3.org/2000/svg">
<g id="24 / symbols / facebook">
<path id="icon" fill-rule="evenodd" clip-rule="evenodd" d="M25 12.5H125C131.904 12.5 137.5 18.0964 137.5 25V125C137.5 131.904 131.904 137.5 125 137.5H25C18.0964 137.5 12.5 131.904 12.5 125V25C12.5 18.0964 18.0964 12.5 25 12.5ZM25 25V125H125V25H25ZM69.5816 75.0275H81.25V112.5H93.75V75.0275H106.14V62.5275H93.75V56.25C93.75 52.7982 96.5482 50 100 50H106.25V37.5H100C89.6447 37.5 81.25 45.8947 81.25 56.25V62.5275H69.5816V75.0275Z" fill="black"/>
</g>
</svg>
