<svg width="200" height="200" viewBox="0 0 200 200" fill="none" xmlns="http://www.w3.org/2000/svg">
<line y1="76.75" x2="32" y2="76.75" stroke="white" stroke-width="2.5"/>
<line x1="168" y1="76.75" x2="200" y2="76.75" stroke="white" stroke-width="2.5"/>
<path d="M38.3203 79V67.625H42.0391C43.2734 67.625 44.2005 67.8802 44.8203 68.3906C45.4453 68.901 45.7578 69.6562 45.7578 70.6562C45.7578 71.1875 45.6068 71.6589 45.3047 72.0703C45.0026 72.4766 44.5911 72.7917 44.0703 73.0156C44.6849 73.1875 45.1693 73.5156 45.5234 74C45.8828 74.4792 46.0625 75.0521 46.0625 75.7188C46.0625 76.7396 45.7318 77.5417 45.0703 78.125C44.4089 78.7083 43.474 79 42.2656 79H38.3203ZM39.8203 73.6797V77.7734H42.2969C42.9948 77.7734 43.5443 77.5938 43.9453 77.2344C44.3516 76.8698 44.5547 76.3698 44.5547 75.7344C44.5547 74.3646 43.8099 73.6797 42.3203 73.6797H39.8203ZM39.8203 72.4766H42.0859C42.7422 72.4766 43.2656 72.3125 43.6562 71.9844C44.0521 71.6562 44.25 71.2109 44.25 70.6484C44.25 70.0234 44.0677 69.5703 43.7031 69.2891C43.3385 69.0026 42.7839 68.8594 42.0391 68.8594H39.8203V72.4766ZM52.1484 71.8438C51.9297 71.8073 51.6927 71.7891 51.4375 71.7891C50.4896 71.7891 49.8464 72.1927 49.5078 73V79H48.0625V70.5469H49.4688L49.4922 71.5234C49.9661 70.7682 50.638 70.3906 51.5078 70.3906C51.7891 70.3906 52.0026 70.4271 52.1484 70.5V71.8438ZM56.8359 79.1562C55.6901 79.1562 54.7578 78.7812 54.0391 78.0312C53.3203 77.276 52.9609 76.2682 52.9609 75.0078V74.7422C52.9609 73.9036 53.1198 73.1562 53.4375 72.5C53.7604 71.8385 54.2083 71.3229 54.7812 70.9531C55.3594 70.5781 55.9844 70.3906 56.6562 70.3906C57.7552 70.3906 58.6094 70.7526 59.2188 71.4766C59.8281 72.2005 60.1328 73.237 60.1328 74.5859V75.1875H54.4062C54.4271 76.0208 54.6693 76.6953 55.1328 77.2109C55.6016 77.7214 56.1953 77.9766 56.9141 77.9766C57.4245 77.9766 57.8568 77.8724 58.2109 77.6641C58.5651 77.4557 58.875 77.1797 59.1406 76.8359L60.0234 77.5234C59.3151 78.612 58.2526 79.1562 56.8359 79.1562ZM56.6562 71.5781C56.0729 71.5781 55.5833 71.7917 55.1875 72.2188C54.7917 72.6406 54.5469 73.2344 54.4531 74H58.6875V73.8906C58.6458 73.1562 58.4479 72.5885 58.0938 72.1875C57.7396 71.7812 57.2604 71.5781 56.6562 71.5781ZM63.1797 70.5469L63.2266 71.6094C63.8724 70.7969 64.7161 70.3906 65.7578 70.3906C67.5443 70.3906 68.4453 71.3984 68.4609 73.4141V79H67.0156V73.4062C67.0104 72.7969 66.8698 72.3464 66.5938 72.0547C66.3229 71.763 65.8984 71.6172 65.3203 71.6172C64.8516 71.6172 64.4401 71.7422 64.0859 71.9922C63.7318 72.2422 63.4557 72.5703 63.2578 72.9766V79H61.8125V70.5469H63.1797ZM70.2891 74.7031C70.2891 73.4062 70.5964 72.3646 71.2109 71.5781C71.8255 70.7865 72.6302 70.3906 73.625 70.3906C74.6146 70.3906 75.3984 70.7292 75.9766 71.4062V67H77.4219V79H76.0938L76.0234 78.0938C75.4453 78.8021 74.6406 79.1562 73.6094 79.1562C72.6302 79.1562 71.8307 78.7552 71.2109 77.9531C70.5964 77.151 70.2891 76.1042 70.2891 74.8125V74.7031ZM71.7344 74.8672C71.7344 75.8255 71.9323 76.5755 72.3281 77.1172C72.724 77.6589 73.2708 77.9297 73.9688 77.9297C74.8854 77.9297 75.5547 77.5182 75.9766 76.6953V72.8125C75.5443 72.0156 74.8802 71.6172 73.9844 71.6172C73.276 71.6172 72.724 71.8906 72.3281 72.4375C71.9323 72.9844 71.7344 73.7943 71.7344 74.8672ZM84.8906 79C84.8073 78.8333 84.7396 78.5365 84.6875 78.1094C84.0156 78.8073 83.2135 79.1562 82.2812 79.1562C81.4479 79.1562 80.763 78.9219 80.2266 78.4531C79.6953 77.9792 79.4297 77.3802 79.4297 76.6562C79.4297 75.776 79.763 75.0938 80.4297 74.6094C81.1016 74.1198 82.0443 73.875 83.2578 73.875H84.6641V73.2109C84.6641 72.7057 84.513 72.3047 84.2109 72.0078C83.9089 71.7057 83.4635 71.5547 82.875 71.5547C82.3594 71.5547 81.9271 71.6849 81.5781 71.9453C81.2292 72.2057 81.0547 72.5208 81.0547 72.8906H79.6016C79.6016 72.4688 79.75 72.0625 80.0469 71.6719C80.349 71.276 80.7552 70.9635 81.2656 70.7344C81.7812 70.5052 82.3464 70.3906 82.9609 70.3906C83.9349 70.3906 84.6979 70.6354 85.25 71.125C85.8021 71.6094 86.0885 72.2786 86.1094 73.1328V77.0234C86.1094 77.7995 86.2083 78.4167 86.4062 78.875V79H84.8906ZM82.4922 77.8984C82.9453 77.8984 83.375 77.7812 83.7812 77.5469C84.1875 77.3125 84.4818 77.0078 84.6641 76.6328V74.8984H83.5312C81.7604 74.8984 80.875 75.4167 80.875 76.4531C80.875 76.9062 81.026 77.2604 81.3281 77.5156C81.6302 77.7708 82.0182 77.8984 82.4922 77.8984ZM87.9453 70.8281L87.125 70.2656C87.6094 69.5885 87.8594 68.875 87.875 68.125V67H89.3047V68.0156C89.2995 68.5365 89.1693 69.0573 88.9141 69.5781C88.6641 70.0938 88.3411 70.5104 87.9453 70.8281ZM95.0938 76.7578C95.0938 76.3672 94.9453 76.0651 94.6484 75.8516C94.3568 75.6328 93.8438 75.4453 93.1094 75.2891C92.3802 75.1328 91.7995 74.9453 91.3672 74.7266C90.9401 74.5078 90.6224 74.2474 90.4141 73.9453C90.2109 73.6432 90.1094 73.2839 90.1094 72.8672C90.1094 72.1745 90.401 71.5885 90.9844 71.1094C91.5729 70.6302 92.3229 70.3906 93.2344 70.3906C94.1927 70.3906 94.9688 70.638 95.5625 71.1328C96.1615 71.6276 96.4609 72.2604 96.4609 73.0312H95.0078C95.0078 72.6354 94.8385 72.2943 94.5 72.0078C94.1667 71.7214 93.7448 71.5781 93.2344 71.5781C92.7083 71.5781 92.2969 71.6927 92 71.9219C91.7031 72.151 91.5547 72.4505 91.5547 72.8203C91.5547 73.1693 91.6927 73.4323 91.9688 73.6094C92.2448 73.7865 92.7422 73.9557 93.4609 74.1172C94.1849 74.2786 94.7708 74.4714 95.2188 74.6953C95.6667 74.9193 95.9974 75.1901 96.2109 75.5078C96.4297 75.8203 96.5391 76.2031 96.5391 76.6562C96.5391 77.4115 96.237 78.0182 95.6328 78.4766C95.0286 78.9297 94.2448 79.1562 93.2812 79.1562C92.6042 79.1562 92.0052 79.0365 91.4844 78.7969C90.9635 78.5573 90.5547 78.224 90.2578 77.7969C89.9661 77.3646 89.8203 76.8984 89.8203 76.3984H91.2656C91.2917 76.8828 91.4844 77.2682 91.8438 77.5547C92.2083 77.8359 92.6875 77.9766 93.2812 77.9766C93.8281 77.9766 94.2656 77.8672 94.5938 77.6484C94.9271 77.4245 95.0938 77.1276 95.0938 76.7578ZM107.383 67.625H108.891V75.6797C108.891 76.7682 108.562 77.6198 107.906 78.2344C107.255 78.849 106.385 79.1562 105.297 79.1562C104.167 79.1562 103.286 78.8672 102.656 78.2891C102.026 77.7109 101.711 76.901 101.711 75.8594H103.211C103.211 76.5104 103.388 77.0182 103.742 77.3828C104.102 77.7474 104.62 77.9297 105.297 77.9297C105.917 77.9297 106.417 77.7344 106.797 77.3438C107.182 76.9531 107.378 76.4062 107.383 75.7031V67.625ZM116.438 78.1641C115.875 78.8255 115.049 79.1562 113.961 79.1562C113.06 79.1562 112.372 78.8958 111.898 78.375C111.43 77.849 111.193 77.0729 111.188 76.0469V70.5469H112.633V76.0078C112.633 77.2891 113.154 77.9297 114.195 77.9297C115.299 77.9297 116.034 77.5182 116.398 76.6953V70.5469H117.844V79H116.469L116.438 78.1641ZM121.406 70.5469L121.445 71.4844C122.065 70.7552 122.901 70.3906 123.953 70.3906C125.135 70.3906 125.94 70.8438 126.367 71.75C126.648 71.3438 127.013 71.0156 127.461 70.7656C127.914 70.5156 128.448 70.3906 129.062 70.3906C130.917 70.3906 131.859 71.3724 131.891 73.3359V79H130.445V73.4219C130.445 72.8177 130.307 72.3672 130.031 72.0703C129.755 71.7682 129.292 71.6172 128.641 71.6172C128.104 71.6172 127.659 71.7786 127.305 72.1016C126.951 72.4193 126.745 72.849 126.688 73.3906V79H125.234V73.4609C125.234 72.2318 124.633 71.6172 123.43 71.6172C122.482 71.6172 121.833 72.0208 121.484 72.8281V79H120.039V70.5469H121.406ZM141.219 74.8672C141.219 76.1536 140.924 77.1901 140.336 77.9766C139.747 78.763 138.951 79.1562 137.945 79.1562C136.919 79.1562 136.112 78.8307 135.523 78.1797V82.25H134.078V70.5469H135.398L135.469 71.4844C136.057 70.7552 136.875 70.3906 137.922 70.3906C138.938 70.3906 139.74 70.7734 140.328 71.5391C140.922 72.3047 141.219 73.3698 141.219 74.7344V74.8672ZM139.773 74.7031C139.773 73.75 139.57 72.9974 139.164 72.4453C138.758 71.8932 138.201 71.6172 137.492 71.6172C136.617 71.6172 135.961 72.0052 135.523 72.7812V76.8203C135.956 77.5911 136.617 77.9766 137.508 77.9766C138.201 77.9766 138.75 77.7031 139.156 77.1562C139.568 76.6042 139.773 75.7865 139.773 74.7031ZM144.633 79H143.188V70.5469H144.633V79ZM143.07 68.3047C143.07 68.0703 143.141 67.8724 143.281 67.7109C143.427 67.5495 143.641 67.4688 143.922 67.4688C144.203 67.4688 144.417 67.5495 144.562 67.7109C144.708 67.8724 144.781 68.0703 144.781 68.3047C144.781 68.5391 144.708 68.7344 144.562 68.8906C144.417 69.0469 144.203 69.125 143.922 69.125C143.641 69.125 143.427 69.0469 143.281 68.8906C143.141 68.7344 143.07 68.5391 143.07 68.3047ZM150.461 79.1562C149.315 79.1562 148.383 78.7812 147.664 78.0312C146.945 77.276 146.586 76.2682 146.586 75.0078V74.7422C146.586 73.9036 146.745 73.1562 147.062 72.5C147.385 71.8385 147.833 71.3229 148.406 70.9531C148.984 70.5781 149.609 70.3906 150.281 70.3906C151.38 70.3906 152.234 70.7526 152.844 71.4766C153.453 72.2005 153.758 73.237 153.758 74.5859V75.1875H148.031C148.052 76.0208 148.294 76.6953 148.758 77.2109C149.227 77.7214 149.82 77.9766 150.539 77.9766C151.049 77.9766 151.482 77.8724 151.836 77.6641C152.19 77.4557 152.5 77.1797 152.766 76.8359L153.648 77.5234C152.94 78.612 151.878 79.1562 150.461 79.1562ZM150.281 71.5781C149.698 71.5781 149.208 71.7917 148.812 72.2188C148.417 72.6406 148.172 73.2344 148.078 74H152.312V73.8906C152.271 73.1562 152.073 72.5885 151.719 72.1875C151.365 71.7812 150.885 71.5781 150.281 71.5781ZM160.359 76.7578C160.359 76.3672 160.211 76.0651 159.914 75.8516C159.622 75.6328 159.109 75.4453 158.375 75.2891C157.646 75.1328 157.065 74.9453 156.633 74.7266C156.206 74.5078 155.888 74.2474 155.68 73.9453C155.477 73.6432 155.375 73.2839 155.375 72.8672C155.375 72.1745 155.667 71.5885 156.25 71.1094C156.839 70.6302 157.589 70.3906 158.5 70.3906C159.458 70.3906 160.234 70.638 160.828 71.1328C161.427 71.6276 161.727 72.2604 161.727 73.0312H160.273C160.273 72.6354 160.104 72.2943 159.766 72.0078C159.432 71.7214 159.01 71.5781 158.5 71.5781C157.974 71.5781 157.562 71.6927 157.266 71.9219C156.969 72.151 156.82 72.4505 156.82 72.8203C156.82 73.1693 156.958 73.4323 157.234 73.6094C157.51 73.7865 158.008 73.9557 158.727 74.1172C159.451 74.2786 160.036 74.4714 160.484 74.6953C160.932 74.9193 161.263 75.1901 161.477 75.5078C161.695 75.8203 161.805 76.2031 161.805 76.6562C161.805 77.4115 161.503 78.0182 160.898 78.4766C160.294 78.9297 159.51 79.1562 158.547 79.1562C157.87 79.1562 157.271 79.0365 156.75 78.7969C156.229 78.5573 155.82 78.224 155.523 77.7969C155.232 77.3646 155.086 76.8984 155.086 76.3984H156.531C156.557 76.8828 156.75 77.2682 157.109 77.5547C157.474 77.8359 157.953 77.9766 158.547 77.9766C159.094 77.9766 159.531 77.8672 159.859 77.6484C160.193 77.4245 160.359 77.1276 160.359 76.7578Z" fill="white"/>
<path d="M38.3203 79H37.8203V79.5H38.3203V79ZM38.3203 67.625V67.125H37.8203V67.625H38.3203ZM44.8203 68.3906L44.5025 68.7766L44.504 68.7779L44.8203 68.3906ZM45.3047 72.0703L45.7059 72.3687L45.7077 72.3662L45.3047 72.0703ZM44.0703 73.0156L43.8728 72.5563L42.5718 73.1157L43.9356 73.4971L44.0703 73.0156ZM45.5234 74L45.1198 74.2951L45.1234 74.3L45.5234 74ZM45.0703 78.125L44.7396 77.75L45.0703 78.125ZM39.8203 73.6797V73.1797H39.3203V73.6797H39.8203ZM39.8203 77.7734H39.3203V78.2734H39.8203V77.7734ZM43.9453 77.2344L44.279 77.6067L44.2793 77.6065L43.9453 77.2344ZM39.8203 72.4766H39.3203V72.9766H39.8203V72.4766ZM43.6562 71.9844L43.3371 71.5994L43.3347 71.6015L43.6562 71.9844ZM43.7031 69.2891L43.3942 69.6822L43.3977 69.685L43.7031 69.2891ZM39.8203 68.8594V68.3594H39.3203V68.8594H39.8203ZM38.8203 79V67.625H37.8203V79H38.8203ZM38.3203 68.125H42.0391V67.125H38.3203V68.125ZM42.0391 68.125C43.2168 68.125 44.0092 68.3704 44.5025 68.7766L45.1382 68.0047C44.3918 67.39 43.3301 67.125 42.0391 67.125V68.125ZM44.504 68.7779C44.9854 69.171 45.2578 69.767 45.2578 70.6562H46.2578C46.2578 69.5455 45.9052 68.6311 45.1366 68.0034L44.504 68.7779ZM45.2578 70.6562C45.2578 71.0857 45.138 71.4524 44.9016 71.7744L45.7077 72.3662C46.0755 71.8653 46.2578 71.2893 46.2578 70.6562H45.2578ZM44.9035 71.772C44.66 72.0994 44.3226 72.3629 43.8728 72.5563L44.2678 73.475C44.8596 73.2205 45.3452 72.8538 45.7059 72.3687L44.9035 71.772ZM43.9356 73.4971C44.4496 73.6409 44.8362 73.9073 45.1198 74.2951L45.9271 73.7049C45.5023 73.124 44.9202 72.7341 44.205 72.5341L43.9356 73.4971ZM45.1234 74.3C45.4106 74.6829 45.5625 75.1474 45.5625 75.7188H46.5625C46.5625 74.9568 46.355 74.2755 45.9234 73.7L45.1234 74.3ZM45.5625 75.7188C45.5625 76.6211 45.276 77.2769 44.7396 77.75L45.401 78.5C46.1875 77.8064 46.5625 76.8581 46.5625 75.7188H45.5625ZM44.7396 77.75C44.1985 78.2272 43.3974 78.5 42.2656 78.5V79.5C43.5505 79.5 44.6192 79.1895 45.401 78.5L44.7396 77.75ZM42.2656 78.5H38.3203V79.5H42.2656V78.5ZM39.3203 73.6797V77.7734H40.3203V73.6797H39.3203ZM39.8203 78.2734H42.2969V77.2734H39.8203V78.2734ZM42.2969 78.2734C43.0805 78.2734 43.7617 78.0703 44.279 77.6067L43.6116 76.862C43.3268 77.1172 42.9091 77.2734 42.2969 77.2734V78.2734ZM44.2793 77.6065C44.8089 77.1312 45.0547 76.4862 45.0547 75.7344H44.0547C44.0547 76.2534 43.8943 76.6084 43.6114 76.8623L44.2793 77.6065ZM45.0547 75.7344C45.0547 74.9611 44.8425 74.2925 44.3345 73.8253C43.8345 73.3655 43.1323 73.1797 42.3203 73.1797V74.1797C42.9979 74.1797 43.4129 74.3364 43.6576 74.5614C43.8945 74.7792 44.0547 75.1378 44.0547 75.7344H45.0547ZM42.3203 73.1797H39.8203V74.1797H42.3203V73.1797ZM39.8203 72.9766H42.0859V71.9766H39.8203V72.9766ZM42.0859 72.9766C42.8255 72.9766 43.4739 72.7905 43.9778 72.3672L43.3347 71.6015C43.0573 71.8345 42.6589 71.9766 42.0859 71.9766V72.9766ZM43.9753 72.3693C44.4975 71.9365 44.75 71.3439 44.75 70.6484H43.75C43.75 71.078 43.6067 71.376 43.3372 71.5994L43.9753 72.3693ZM44.75 70.6484C44.75 69.9278 44.5362 69.3003 44.0085 68.8932L43.3977 69.685C43.5992 69.8404 43.75 70.1191 43.75 70.6484H44.75ZM44.012 68.8959C43.52 68.5093 42.8327 68.3594 42.0391 68.3594V69.3594C42.735 69.3594 43.157 69.4959 43.3942 69.6822L44.012 68.8959ZM42.0391 68.3594H39.8203V69.3594H42.0391V68.3594ZM39.3203 68.8594V72.4766H40.3203V68.8594H39.3203ZM52.1484 71.8438L52.0662 72.3369L52.6484 72.434V71.8438H52.1484ZM49.5078 73L49.0467 72.8066L49.0078 72.8994V73H49.5078ZM49.5078 79V79.5H50.0078V79H49.5078ZM48.0625 79H47.5625V79.5H48.0625V79ZM48.0625 70.5469V70.0469H47.5625V70.5469H48.0625ZM49.4688 70.5469L49.9686 70.5349L49.9569 70.0469H49.4688V70.5469ZM49.4922 71.5234L48.9923 71.5354L49.0322 73.197L49.9157 71.7892L49.4922 71.5234ZM52.1484 70.5H52.6484V70.191L52.372 70.0528L52.1484 70.5ZM52.2306 71.3506C51.981 71.309 51.7162 71.2891 51.4375 71.2891V72.2891C51.6692 72.2891 51.8783 72.3056 52.0662 72.3369L52.2306 71.3506ZM51.4375 71.2891C50.8928 71.2891 50.3973 71.4054 49.9784 71.6683C49.5567 71.9329 49.2495 72.323 49.0467 72.8066L49.9689 73.1934C50.1046 72.8697 50.2884 72.6543 50.5099 72.5153C50.7343 72.3745 51.0343 72.2891 51.4375 72.2891V71.2891ZM49.0078 73V79H50.0078V73H49.0078ZM49.5078 78.5H48.0625V79.5H49.5078V78.5ZM48.5625 79V70.5469H47.5625V79H48.5625ZM48.0625 71.0469H49.4688V70.0469H48.0625V71.0469ZM48.9689 70.5589L48.9923 71.5354L49.992 71.5114L49.9686 70.5349L48.9689 70.5589ZM49.9157 71.7892C50.301 71.1753 50.8153 70.8906 51.5078 70.8906V69.8906C50.4608 69.8906 49.6313 70.3612 49.0687 71.2577L49.9157 71.7892ZM51.5078 70.8906C51.7601 70.8906 51.8817 70.9257 51.9248 70.9472L52.372 70.0528C52.1235 69.9285 51.818 69.8906 51.5078 69.8906V70.8906ZM51.6484 70.5V71.8438H52.6484V70.5H51.6484ZM54.0391 78.0312L53.6769 78.376L53.6781 78.3772L54.0391 78.0312ZM53.4375 72.5L52.9882 72.2806L52.9875 72.2821L53.4375 72.5ZM54.7812 70.9531L55.0524 71.3732L55.0533 71.3726L54.7812 70.9531ZM59.2188 71.4766L58.8362 71.7985L59.2188 71.4766ZM60.1328 75.1875V75.6875H60.6328V75.1875H60.1328ZM54.4062 75.1875V74.6875H53.8936L53.9064 75.2L54.4062 75.1875ZM55.1328 77.2109L54.761 77.5452L54.7645 77.5491L55.1328 77.2109ZM59.1406 76.8359L59.4478 76.4414L59.0519 76.1331L58.745 76.5302L59.1406 76.8359ZM60.0234 77.5234L60.4425 77.7961L60.693 77.4112L60.3306 77.1289L60.0234 77.5234ZM55.1875 72.2188L55.5521 72.5609L55.5542 72.5586L55.1875 72.2188ZM54.4531 74L53.9568 73.9392L53.8882 74.5H54.4531V74ZM58.6875 74V74.5H59.1875V74H58.6875ZM58.6875 73.8906H59.1875V73.8765L59.1867 73.8623L58.6875 73.8906ZM58.0938 72.1875L57.7169 72.5161L57.719 72.5185L58.0938 72.1875ZM56.8359 78.6562C55.8109 78.6562 55.0143 78.3262 54.4001 77.6853L53.6781 78.3772C54.5014 79.2363 55.5693 79.6562 56.8359 79.6562V78.6562ZM54.4013 77.6865C53.7888 77.043 53.4609 76.1683 53.4609 75.0078H52.4609C52.4609 76.3681 52.8518 77.5091 53.6769 78.376L54.4013 77.6865ZM53.4609 75.0078V74.7422H52.4609V75.0078H53.4609ZM53.4609 74.7422C53.4609 73.9678 53.6073 73.2967 53.8875 72.7179L52.9875 72.2821C52.6323 73.0158 52.4609 73.8395 52.4609 74.7422H53.4609ZM53.8868 72.7194C54.173 72.133 54.5621 71.6897 55.0524 71.3732L54.5101 70.533C53.8545 70.9562 53.3478 71.544 52.9882 72.2806L53.8868 72.7194ZM55.0533 71.3726C55.5526 71.0487 56.0835 70.8906 56.6562 70.8906V69.8906C55.8852 69.8906 55.1661 70.1075 54.5092 70.5336L55.0533 71.3726ZM56.6562 70.8906C57.6342 70.8906 58.3377 71.2063 58.8362 71.7985L59.6013 71.1546C58.8811 70.299 57.8763 69.8906 56.6562 69.8906V70.8906ZM58.8362 71.7985C59.3431 72.4007 59.6328 73.3055 59.6328 74.5859H60.6328C60.6328 73.1685 60.3132 72.0003 59.6013 71.1546L58.8362 71.7985ZM59.6328 74.5859V75.1875H60.6328V74.5859H59.6328ZM60.1328 74.6875H54.4062V75.6875H60.1328V74.6875ZM53.9064 75.2C53.9296 76.1272 54.2024 76.9239 54.761 77.5452L55.5046 76.8767C55.1361 76.4667 54.9246 75.9144 54.9061 75.175L53.9064 75.2ZM54.7645 77.5491C55.3319 78.1669 56.0612 78.4766 56.9141 78.4766V77.4766C56.3294 77.4766 55.8712 77.2758 55.5011 76.8727L54.7645 77.5491ZM56.9141 78.4766C57.4922 78.4766 58.0169 78.3583 58.4644 78.095L57.9574 77.2331C57.6967 77.3865 57.3567 77.4766 56.9141 77.4766V78.4766ZM58.4644 78.095C58.8766 77.8526 59.2339 77.5329 59.5363 77.1417L58.745 76.5302C58.5161 76.8265 58.2536 77.0589 57.9574 77.2331L58.4644 78.095ZM58.8334 77.2304L59.7162 77.9179L60.3306 77.1289L59.4478 76.4414L58.8334 77.2304ZM59.6044 77.2507C58.9978 78.1829 58.1017 78.6562 56.8359 78.6562V79.6562C58.4035 79.6562 59.6324 79.0411 60.4425 77.7961L59.6044 77.2507ZM56.6562 71.0781C55.934 71.0781 55.3114 71.3495 54.8208 71.8789L55.5542 72.5586C55.8552 72.2338 56.2118 72.0781 56.6562 72.0781V71.0781ZM54.8229 71.8766C54.3336 72.3981 54.0592 73.103 53.9568 73.9392L54.9494 74.0608C55.0345 73.3657 55.2497 72.8832 55.5521 72.5609L54.8229 71.8766ZM54.4531 74.5H58.6875V73.5H54.4531V74.5ZM59.1875 74V73.8906H58.1875V74H59.1875ZM59.1867 73.8623C59.141 73.0574 58.9204 72.3682 58.4685 71.8565L57.719 72.5185C57.9754 72.8089 58.1506 73.2551 58.1883 73.9189L59.1867 73.8623ZM58.4706 71.8589C58.0094 71.3299 57.3854 71.0781 56.6562 71.0781V72.0781C57.1355 72.0781 57.4698 72.2326 57.7169 72.5161L58.4706 71.8589ZM63.1797 70.5469L63.6792 70.5248L63.6581 70.0469H63.1797V70.5469ZM63.2266 71.6094L62.727 71.6314L62.786 72.9672L63.618 71.9205L63.2266 71.6094ZM68.4609 73.4141H68.961L68.9609 73.4102L68.4609 73.4141ZM68.4609 79V79.5H68.9609V79H68.4609ZM67.0156 79H66.5156V79.5H67.0156V79ZM67.0156 73.4062H67.5156L67.5156 73.402L67.0156 73.4062ZM66.5938 72.0547L66.2273 72.3949L66.2306 72.3984L66.5938 72.0547ZM63.2578 72.9766L62.8083 72.7576L62.7578 72.8612V72.9766H63.2578ZM63.2578 79V79.5H63.7578V79H63.2578ZM61.8125 79H61.3125V79.5H61.8125V79ZM61.8125 70.5469V70.0469H61.3125V70.5469H61.8125ZM62.6802 70.5689L62.727 71.6314L63.7261 71.5873L63.6792 70.5248L62.6802 70.5689ZM63.618 71.9205C64.1686 71.2278 64.8679 70.8906 65.7578 70.8906V69.8906C64.5644 69.8906 63.5762 70.3659 62.8352 71.2983L63.618 71.9205ZM65.7578 70.8906C66.557 70.8906 67.073 71.1133 67.4007 71.4797C67.7384 71.8574 67.9536 72.4737 67.961 73.4179L68.9609 73.4102C68.9526 72.3388 68.7095 71.4433 68.1462 70.8132C67.5728 70.1719 66.7451 69.8906 65.7578 69.8906V70.8906ZM67.9609 73.4141V79H68.9609V73.4141H67.9609ZM68.4609 78.5H67.0156V79.5H68.4609V78.5ZM67.5156 79V73.4062H66.5156V79H67.5156ZM67.5156 73.402C67.5099 72.7299 67.3554 72.1321 66.9569 71.711L66.2306 72.3984C66.3842 72.5606 66.511 72.8639 66.5156 73.4105L67.5156 73.402ZM66.9601 71.7145C66.5587 71.2821 65.9738 71.1172 65.3203 71.1172V72.1172C65.8231 72.1172 66.0872 72.2439 66.2274 72.3949L66.9601 71.7145ZM65.3203 71.1172C64.7571 71.1172 64.2431 71.2693 63.7976 71.5837L64.3743 72.4007C64.6371 72.2151 64.946 72.1172 65.3203 72.1172V71.1172ZM63.7976 71.5837C63.3716 71.8844 63.0415 72.2789 62.8083 72.7576L63.7073 73.1955C63.87 72.8617 64.0919 72.6 64.3743 72.4007L63.7976 71.5837ZM62.7578 72.9766V79H63.7578V72.9766H62.7578ZM63.2578 78.5H61.8125V79.5H63.2578V78.5ZM62.3125 79V70.5469H61.3125V79H62.3125ZM61.8125 71.0469H63.1797V70.0469H61.8125V71.0469ZM71.2109 71.5781L71.6049 71.886L71.6059 71.8847L71.2109 71.5781ZM75.9766 71.4062L75.5963 71.7309L76.4766 72.7618V71.4062H75.9766ZM75.9766 67V66.5H75.4766V67H75.9766ZM77.4219 67H77.9219V66.5H77.4219V67ZM77.4219 79V79.5H77.9219V79H77.4219ZM76.0938 79L75.5952 79.0387L75.631 79.5H76.0938V79ZM76.0234 78.0938L76.5219 78.0551L76.4254 76.8105L75.6361 77.7776L76.0234 78.0938ZM71.2109 77.9531L70.814 78.2572L70.8153 78.2588L71.2109 77.9531ZM75.9766 76.6953L76.4215 76.9234L76.4766 76.816V76.6953H75.9766ZM75.9766 72.8125H76.4766V72.6856L76.4161 72.5741L75.9766 72.8125ZM70.7891 74.7031C70.7891 73.4842 71.0772 72.5613 71.6049 71.886L70.817 71.2703C70.1155 72.1679 69.7891 73.3283 69.7891 74.7031H70.7891ZM71.6059 71.8847C72.1266 71.214 72.786 70.8906 73.625 70.8906V69.8906C72.4744 69.8906 71.5244 70.3589 70.816 71.2715L71.6059 71.8847ZM73.625 70.8906C74.4866 70.8906 75.1245 71.1783 75.5963 71.7309L76.3568 71.0816C75.6724 70.28 74.7425 69.8906 73.625 69.8906V70.8906ZM76.4766 71.4062V67H75.4766V71.4062H76.4766ZM75.9766 67.5H77.4219V66.5H75.9766V67.5ZM76.9219 67V79H77.9219V67H76.9219ZM77.4219 78.5H76.0938V79.5H77.4219V78.5ZM76.5923 78.9613L76.5219 78.0551L75.5249 78.1324L75.5952 79.0387L76.5923 78.9613ZM75.6361 77.7776C75.1658 78.3538 74.5121 78.6562 73.6094 78.6562V79.6562C74.7691 79.6562 75.7248 79.2504 76.4108 78.4099L75.6361 77.7776ZM73.6094 78.6562C72.7913 78.6562 72.1356 78.332 71.6066 77.6474L70.8153 78.2588C71.5259 79.1784 72.4691 79.6562 73.6094 79.6562V78.6562ZM71.6078 77.649C71.0767 76.9559 70.7891 76.0251 70.7891 74.8125H69.7891C69.7891 76.1832 70.116 77.3462 70.8141 78.2572L71.6078 77.649ZM70.7891 74.8125V74.7031H69.7891V74.8125H70.7891ZM71.2344 74.8672C71.2344 75.8877 71.4443 76.7552 71.9244 77.4122L72.7318 76.8222C72.4203 76.3958 72.2344 75.7633 72.2344 74.8672H71.2344ZM71.9244 77.4122C72.4188 78.0887 73.1188 78.4297 73.9688 78.4297V77.4297C73.4228 77.4297 73.0291 77.229 72.7318 76.8222L71.9244 77.4122ZM73.9688 78.4297C74.5039 78.4297 74.9943 78.3088 75.4201 78.047C75.8456 77.7854 76.1763 77.4017 76.4215 76.9234L75.5316 76.4672C75.355 76.8118 75.1401 77.0453 74.8963 77.1952C74.6528 77.3449 74.3503 77.4297 73.9688 77.4297V78.4297ZM76.4766 76.6953V72.8125H75.4766V76.6953H76.4766ZM76.4161 72.5741C76.1646 72.1106 75.8325 71.7398 75.4115 71.4873C74.9903 71.2345 74.5085 71.1172 73.9844 71.1172V72.1172C74.3561 72.1172 74.6542 72.1991 74.897 72.3448C75.1402 72.4906 75.3562 72.7175 75.5371 73.0509L76.4161 72.5741ZM73.9844 71.1172C73.125 71.1172 72.4183 71.4602 71.9231 72.1443L72.7332 72.7307C73.0296 72.3211 73.4271 72.1172 73.9844 72.1172V71.1172ZM71.9231 72.1443C71.4387 72.8135 71.2344 73.7464 71.2344 74.8672H72.2344C72.2344 73.8422 72.4258 73.1553 72.7332 72.7307L71.9231 72.1443ZM84.8906 79L84.4434 79.2236L84.5816 79.5H84.8906V79ZM84.6875 78.1094L85.1838 78.0488L85.0565 77.0051L84.3273 77.7626L84.6875 78.1094ZM80.2266 78.4531L79.8937 78.8262L79.8976 78.8296L80.2266 78.4531ZM80.4297 74.6094L80.7236 75.0139L80.7241 75.0135L80.4297 74.6094ZM84.6641 73.875V74.375H85.1641V73.875H84.6641ZM84.2109 72.0078L83.8574 72.3614L83.8605 72.3644L84.2109 72.0078ZM81.0547 72.8906V73.3906H81.5547V72.8906H81.0547ZM79.6016 72.8906H79.1016V73.3906H79.6016V72.8906ZM80.0469 71.6719L79.6494 71.3685L79.6488 71.3693L80.0469 71.6719ZM81.2656 70.7344L81.0626 70.2775L81.0608 70.2782L81.2656 70.7344ZM85.25 71.125L84.9183 71.4991L84.9202 71.5008L85.25 71.125ZM86.1094 73.1328H86.6095L86.6092 73.1206L86.1094 73.1328ZM86.4062 78.875H86.9062V78.7717L86.8653 78.6768L86.4062 78.875ZM86.4062 79V79.5H86.9062V79H86.4062ZM84.6641 76.6328L85.1137 76.8514L85.1641 76.7479V76.6328H84.6641ZM84.6641 74.8984H85.1641V74.3984H84.6641V74.8984ZM85.3378 78.7764C85.2966 78.694 85.2357 78.474 85.1838 78.0488L84.1912 78.1699C84.2435 78.5989 84.3179 78.9727 84.4434 79.2236L85.3378 78.7764ZM84.3273 77.7626C83.7455 78.3669 83.0718 78.6562 82.2812 78.6562V79.6562C83.3553 79.6562 84.2857 79.2477 85.0477 78.4561L84.3273 77.7626ZM82.2812 78.6562C81.5472 78.6562 80.9858 78.4525 80.5556 78.0766L79.8976 78.8296C80.5403 79.3912 81.3486 79.6562 82.2812 79.6562V78.6562ZM80.5594 78.08C80.1365 77.7027 79.9297 77.2405 79.9297 76.6562H78.9297C78.9297 77.52 79.2541 78.2556 79.8937 78.8262L80.5594 78.08ZM79.9297 76.6562C79.9297 75.9233 80.1964 75.3969 80.7236 75.0139L80.1358 74.2049C79.3296 74.7906 78.9297 75.6288 78.9297 76.6562H79.9297ZM80.7241 75.0135C81.2793 74.609 82.1035 74.375 83.2578 74.375V73.375C81.985 73.375 80.9239 73.6306 80.1352 74.2053L80.7241 75.0135ZM83.2578 74.375H84.6641V73.375H83.2578V74.375ZM85.1641 73.875V73.2109H84.1641V73.875H85.1641ZM85.1641 73.2109C85.1641 72.5994 84.9773 72.0599 84.5614 71.6512L83.8605 72.3644C84.0487 72.5494 84.1641 72.812 84.1641 73.2109H85.1641ZM84.5645 71.6543C84.1378 71.2276 83.545 71.0547 82.875 71.0547V72.0547C83.3821 72.0547 83.6799 72.1839 83.8574 72.3614L84.5645 71.6543ZM82.875 71.0547C82.2721 71.0547 81.7295 71.2085 81.2791 71.5446L81.8772 72.346C82.1247 72.1613 82.4467 72.0547 82.875 72.0547V71.0547ZM81.2791 71.5446C80.8291 71.8804 80.5547 72.3338 80.5547 72.8906H81.5547C81.5547 72.7079 81.6293 72.531 81.8772 72.346L81.2791 71.5446ZM81.0547 72.3906H79.6016V73.3906H81.0547V72.3906ZM80.1016 72.8906C80.1016 72.5952 80.203 72.2928 80.445 71.9744L79.6488 71.3693C79.297 71.8322 79.1016 72.3423 79.1016 72.8906H80.1016ZM80.4444 71.9752C80.6899 71.6534 81.0264 71.3899 81.4704 71.1905L81.0608 70.2782C80.484 70.5372 80.008 70.8987 79.6494 71.3685L80.4444 71.9752ZM81.4687 71.1913C81.9149 70.993 82.41 70.8906 82.9609 70.8906V69.8906C82.2827 69.8906 81.6476 70.0174 81.0626 70.2775L81.4687 71.1913ZM82.9609 70.8906C83.8525 70.8906 84.4836 71.1136 84.9183 71.4991L85.5817 70.7509C84.9122 70.1572 84.0173 69.8906 82.9609 69.8906V70.8906ZM84.9202 71.5008C85.3499 71.8778 85.5915 72.4055 85.6095 73.145L86.6092 73.1206C86.5856 72.1518 86.2543 71.3409 85.5798 70.7492L84.9202 71.5008ZM85.6094 73.1328V77.0234H86.6094V73.1328H85.6094ZM85.6094 77.0234C85.6094 77.8338 85.7115 78.5273 85.9472 79.0732L86.8653 78.6768C86.7052 78.306 86.6094 77.7651 86.6094 77.0234H85.6094ZM85.9062 78.875V79H86.9062V78.875H85.9062ZM86.4062 78.5H84.8906V79.5H86.4062V78.5ZM82.4922 78.3984C83.0362 78.3984 83.5517 78.2566 84.0311 77.98L83.5314 77.1138C83.1983 77.3059 82.8544 77.3984 82.4922 77.3984V78.3984ZM84.0311 77.98C84.5127 77.7021 84.8824 77.3272 85.1137 76.8514L84.2144 76.4142C84.0811 76.6884 83.8623 76.9229 83.5314 77.1138L84.0311 77.98ZM85.1641 76.6328V74.8984H84.1641V76.6328H85.1641ZM84.6641 74.3984H83.5312V75.3984H84.6641V74.3984ZM83.5312 74.3984C82.6134 74.3984 81.843 74.5298 81.2865 74.8556C80.6886 75.2055 80.375 75.7596 80.375 76.4531H81.375C81.375 76.1102 81.5041 75.8869 81.7916 75.7186C82.1205 75.5261 82.6782 75.3984 83.5312 75.3984V74.3984ZM80.375 76.4531C80.375 77.0295 80.5738 77.5329 81.0054 77.8976L81.6508 77.1337C81.4783 76.9879 81.375 76.783 81.375 76.4531H80.375ZM81.0054 77.8976C81.4149 78.2435 81.9246 78.3984 82.4922 78.3984V77.3984C82.1119 77.3984 81.8456 77.2982 81.6508 77.1337L81.0054 77.8976ZM87.9453 70.8281L87.6625 71.2405L87.9687 71.4505L88.2583 71.2181L87.9453 70.8281ZM87.125 70.2656L86.7183 69.9747L86.4216 70.3895L86.8422 70.678L87.125 70.2656ZM87.875 68.125L88.375 68.1354V68.125H87.875ZM87.875 67V66.5H87.375V67H87.875ZM89.3047 67H89.8047V66.5H89.3047V67ZM89.3047 68.0156L89.8047 68.0206V68.0156H89.3047ZM88.9141 69.5781L88.4651 69.3581L88.4642 69.36L88.9141 69.5781ZM88.2281 70.4158L87.4078 69.8533L86.8422 70.678L87.6625 71.2405L88.2281 70.4158ZM87.5317 70.5565C88.068 69.8069 88.3569 68.9971 88.3749 68.1354L87.3751 68.1146C87.3618 68.7529 87.1508 69.3702 86.7183 69.9747L87.5317 70.5565ZM88.375 68.125V67H87.375V68.125H88.375ZM87.875 67.5H89.3047V66.5H87.875V67.5ZM88.8047 67V68.0156H89.8047V67H88.8047ZM88.8047 68.0106C88.8003 68.4488 88.6912 68.8966 88.4651 69.3581L89.3631 69.7981C89.6473 69.218 89.7986 68.6241 89.8047 68.0206L88.8047 68.0106ZM88.4642 69.36C88.2423 69.8175 87.9633 70.1725 87.6323 70.4382L88.2583 71.2181C88.719 70.8483 89.0858 70.37 89.364 69.7963L88.4642 69.36ZM94.6484 75.8516L94.3484 76.2516L94.3565 76.2575L94.6484 75.8516ZM93.1094 75.2891L93.0046 75.778L93.0053 75.7781L93.1094 75.2891ZM91.3672 74.7266L91.1392 75.1716L91.1414 75.1727L91.3672 74.7266ZM90.4141 73.9453L89.9991 74.2243L90.0025 74.2292L90.4141 73.9453ZM90.9844 71.1094L90.6687 70.7216L90.667 70.723L90.9844 71.1094ZM95.5625 71.1328L95.2424 71.5169L95.2441 71.5183L95.5625 71.1328ZM96.4609 73.0312V73.5312H96.9609V73.0312H96.4609ZM95.0078 73.0312H94.5078V73.5312H95.0078V73.0312ZM94.5 72.0078L94.1741 72.387L94.177 72.3895L94.5 72.0078ZM93.4609 74.1172L93.3513 74.605L93.3521 74.6052L93.4609 74.1172ZM96.2109 75.5078L95.7959 75.7868L95.8013 75.7945L96.2109 75.5078ZM95.6328 78.4766L95.9328 78.8766L95.935 78.8749L95.6328 78.4766ZM90.2578 77.7969L89.8433 78.0766L89.8473 78.0823L90.2578 77.7969ZM89.8203 76.3984V75.8984H89.3203V76.3984H89.8203ZM91.2656 76.3984L91.7649 76.3716L91.7395 75.8984H91.2656V76.3984ZM91.8438 77.5547L91.5321 77.9457L91.5383 77.9506L91.8438 77.5547ZM94.5938 77.6484L94.8711 78.0645L94.8726 78.0635L94.5938 77.6484ZM95.5938 76.7578C95.5938 76.2192 95.378 75.7604 94.9404 75.4457L94.3565 76.2575C94.5126 76.3698 94.5938 76.5152 94.5938 76.7578H95.5938ZM94.9484 75.4516C94.5643 75.1635 93.9592 74.9587 93.2134 74.8L93.0053 75.7781C93.7283 75.9319 94.1492 76.1022 94.3484 76.2516L94.9484 75.4516ZM93.2141 74.8002C92.507 74.6486 91.9722 74.4723 91.5929 74.2804L91.1414 75.1727C91.6268 75.4183 92.2534 75.617 93.0046 75.778L93.2141 74.8002ZM91.5951 74.2815C91.2197 74.0893 90.9748 73.8777 90.8257 73.6614L90.0025 74.2292C90.27 74.6171 90.6605 74.9264 91.1392 75.1716L91.5951 74.2815ZM90.829 73.6663C90.689 73.4582 90.6094 73.1993 90.6094 72.8672H89.6094C89.6094 73.3684 89.7328 73.8283 89.9991 74.2243L90.829 73.6663ZM90.6094 72.8672C90.6094 72.3388 90.8222 71.8896 91.3017 71.4957L90.667 70.723C89.9799 71.2874 89.6094 72.0102 89.6094 72.8672H90.6094ZM91.3001 71.4971C91.7824 71.1044 92.4139 70.8906 93.2344 70.8906V69.8906C92.2319 69.8906 91.3634 70.156 90.6687 70.7216L91.3001 71.4971ZM93.2344 70.8906C94.1047 70.8906 94.7585 71.1137 95.2424 71.5169L95.8826 70.7487C95.179 70.1624 94.2807 69.8906 93.2344 69.8906V70.8906ZM95.2441 71.5183C95.7291 71.919 95.9609 72.4109 95.9609 73.0312H96.9609C96.9609 72.1099 96.5938 71.3362 95.8809 70.7473L95.2441 71.5183ZM96.4609 72.5312H95.0078V73.5312H96.4609V72.5312ZM95.5078 73.0312C95.5078 72.4696 95.2586 71.9947 94.823 71.6261L94.177 72.3895C94.4185 72.5938 94.5078 72.8013 94.5078 73.0312H95.5078ZM94.8259 71.6286C94.3875 71.2519 93.844 71.0781 93.2344 71.0781V72.0781C93.6456 72.0781 93.9458 72.1908 94.1741 72.387L94.8259 71.6286ZM93.2344 71.0781C92.6413 71.0781 92.108 71.2068 91.6945 71.5261L92.3055 72.3177C92.4857 72.1786 92.7753 72.0781 93.2344 72.0781V71.0781ZM91.6945 71.5261C91.277 71.8483 91.0547 72.293 91.0547 72.8203H92.0547C92.0547 72.608 92.1293 72.4537 92.3055 72.3177L91.6945 71.5261ZM91.0547 72.8203C91.0547 73.3265 91.2687 73.7543 91.6988 74.0302L92.2387 73.1885C92.1167 73.1102 92.0547 73.012 92.0547 72.8203H91.0547ZM91.6988 74.0302C92.0551 74.2588 92.6289 74.4427 93.3513 74.605L93.5705 73.6293C92.8555 73.4687 92.4345 73.3141 92.2387 73.1885L91.6988 74.0302ZM93.3521 74.6052C94.0534 74.7616 94.5966 74.9432 94.9951 75.1425L95.4424 74.2481C94.9451 73.9995 94.3164 73.7957 93.5698 73.6292L93.3521 74.6052ZM94.9951 75.1425C95.3889 75.3394 95.6432 75.5595 95.796 75.7867L96.6259 75.2289C96.3516 74.8207 95.9444 74.4991 95.4424 74.2481L94.9951 75.1425ZM95.8013 75.7945C95.9509 76.0082 96.0391 76.286 96.0391 76.6562H97.0391C97.0391 76.1203 96.9085 75.6325 96.6206 75.2211L95.8013 75.7945ZM96.0391 76.6562C96.0391 77.2543 95.8108 77.714 95.3306 78.0782L95.935 78.8749C96.6632 78.3225 97.0391 77.5686 97.0391 76.6562H96.0391ZM95.3328 78.0766C94.8365 78.4488 94.1667 78.6562 93.2812 78.6562V79.6562C94.3229 79.6562 95.2208 79.4106 95.9328 78.8766L95.3328 78.0766ZM93.2812 78.6562C92.6634 78.6562 92.1378 78.5471 91.6933 78.3426L91.2754 79.2511C91.8726 79.5258 92.5449 79.6562 93.2812 79.6562V78.6562ZM91.6933 78.3426C91.245 78.1364 90.9092 77.858 90.6684 77.5115L89.8473 78.0823C90.2002 78.5899 90.682 78.9782 91.2754 79.2511L91.6933 78.3426ZM90.6723 77.5172C90.4338 77.1638 90.3203 76.7943 90.3203 76.3984H89.3203C89.3203 77.0025 89.4985 77.5654 89.8433 78.0765L90.6723 77.5172ZM89.8203 76.8984H91.2656V75.8984H89.8203V76.8984ZM90.7663 76.4253C90.7996 77.0433 91.0542 77.5648 91.5321 77.9457L92.1554 77.1637C91.9145 76.9717 91.7838 76.7223 91.7649 76.3716L90.7663 76.4253ZM91.5383 77.9506C92.0129 78.3167 92.6092 78.4766 93.2812 78.4766V77.4766C92.7658 77.4766 92.4037 77.3552 92.1492 77.1588L91.5383 77.9506ZM93.2812 78.4766C93.8899 78.4766 94.4347 78.3554 94.8711 78.0645L94.3164 77.2324C94.0965 77.379 93.7663 77.4766 93.2812 77.4766V78.4766ZM94.8726 78.0635C95.3301 77.7561 95.5938 77.3104 95.5938 76.7578H94.5938C94.5938 76.9448 94.5241 77.0929 94.3149 77.2334L94.8726 78.0635ZM107.383 67.625V67.125H106.883V67.625H107.383ZM108.891 67.625H109.391V67.125H108.891V67.625ZM107.906 78.2344L107.564 77.8694L107.563 77.8708L107.906 78.2344ZM101.711 75.8594V75.3594H101.211V75.8594H101.711ZM103.211 75.8594H103.711V75.3594H103.211V75.8594ZM103.742 77.3828L103.384 77.7312L103.386 77.7338L103.742 77.3828ZM106.797 77.3438L106.441 76.9926L106.439 76.995L106.797 77.3438ZM107.383 75.7031L107.883 75.7068V75.7031H107.383ZM107.383 68.125H108.891V67.125H107.383V68.125ZM108.391 67.625V75.6797H109.391V67.625H108.391ZM108.391 75.6797C108.391 76.6614 108.099 77.3689 107.564 77.8694L108.248 78.5993C109.026 77.8707 109.391 76.8751 109.391 75.6797H108.391ZM107.563 77.8708C107.024 78.3796 106.287 78.6562 105.297 78.6562V79.6562C106.484 79.6562 107.486 79.3183 108.249 78.598L107.563 77.8708ZM105.297 78.6562C104.251 78.6562 103.506 78.3899 102.994 77.9206L102.318 78.6575C103.067 79.3445 104.083 79.6562 105.297 79.6562V78.6562ZM102.994 77.9206C102.489 77.4574 102.211 76.7939 102.211 75.8594H101.211C101.211 77.0081 101.563 77.9645 102.318 78.6575L102.994 77.9206ZM101.711 76.3594H103.211V75.3594H101.711V76.3594ZM102.711 75.8594C102.711 76.6024 102.915 77.2491 103.384 77.7312L104.101 77.0344C103.861 76.7873 103.711 76.4184 103.711 75.8594H102.711ZM103.386 77.7338C103.867 78.2215 104.531 78.4297 105.297 78.4297V77.4297C104.709 77.4297 104.336 77.2733 104.098 77.0318L103.386 77.7338ZM105.297 78.4297C106.031 78.4297 106.668 78.1934 107.155 77.6925L106.439 76.995C106.166 77.2753 105.802 77.4297 105.297 77.4297V78.4297ZM107.153 77.6949C107.653 77.1876 107.877 76.5019 107.883 75.7068L106.883 75.6994C106.878 76.3106 106.711 76.7186 106.441 76.9926L107.153 77.6949ZM107.883 75.7031V67.625H106.883V75.7031H107.883ZM116.438 78.1641L116.937 78.1454L116.889 76.8611L116.057 77.8402L116.438 78.1641ZM111.898 78.375L111.525 78.7077L111.529 78.7115L111.898 78.375ZM111.188 76.0469H110.687L110.688 76.0494L111.188 76.0469ZM111.188 70.5469V70.0469H110.688V70.5469H111.188ZM112.633 70.5469H113.133V70.0469H112.633V70.5469ZM116.398 76.6953L116.856 76.8978L116.898 76.8011V76.6953H116.398ZM116.398 70.5469V70.0469H115.898V70.5469H116.398ZM117.844 70.5469H118.344V70.0469H117.844V70.5469ZM117.844 79V79.5H118.344V79H117.844ZM116.469 79L115.969 79.0187L115.987 79.5H116.469V79ZM116.057 77.8402C115.612 78.3625 114.943 78.6562 113.961 78.6562V79.6562C115.156 79.6562 116.138 79.2886 116.818 78.488L116.057 77.8402ZM113.961 78.6562C113.159 78.6562 112.623 78.4278 112.268 78.0385L111.529 78.7115C112.122 79.3639 112.961 79.6562 113.961 79.6562V78.6562ZM112.272 78.0424C111.914 77.6411 111.692 77.0031 111.687 76.0443L110.688 76.0494C110.693 77.1427 110.945 78.0569 111.525 78.7076L112.272 78.0424ZM111.688 76.0469V70.5469H110.688V76.0469H111.688ZM111.188 71.0469H112.633V70.0469H111.188V71.0469ZM112.133 70.5469V76.0078H113.133V70.5469H112.133ZM112.133 76.0078C112.133 76.7033 112.272 77.3177 112.635 77.7646C113.015 78.2314 113.567 78.4297 114.195 78.4297V77.4297C113.782 77.4297 113.553 77.3077 113.411 77.1338C113.254 76.9401 113.133 76.5936 113.133 76.0078H112.133ZM114.195 78.4297C114.807 78.4297 115.357 78.3159 115.819 78.0573C116.287 77.795 116.633 77.4009 116.856 76.8978L115.941 76.4928C115.8 76.8127 115.596 77.0358 115.33 77.1849C115.057 77.3377 114.688 77.4297 114.195 77.4297V78.4297ZM116.898 76.6953V70.5469H115.898V76.6953H116.898ZM116.398 71.0469H117.844V70.0469H116.398V71.0469ZM117.344 70.5469V79H118.344V70.5469H117.344ZM117.844 78.5H116.469V79.5H117.844V78.5ZM116.968 78.9813L116.937 78.1454L115.938 78.1827L115.969 79.0187L116.968 78.9813ZM121.406 70.5469L121.906 70.5261L121.886 70.0469H121.406V70.5469ZM121.445 71.4844L120.946 71.5052L120.999 72.7816L121.826 71.8082L121.445 71.4844ZM126.367 71.75L125.915 71.9631L126.285 72.7477L126.778 72.0346L126.367 71.75ZM127.461 70.7656L127.219 70.3278L127.217 70.329L127.461 70.7656ZM131.891 73.3359H132.391L132.391 73.328L131.891 73.3359ZM131.891 79V79.5H132.391V79H131.891ZM130.445 79H129.945V79.5H130.445V79ZM130.031 72.0703L129.662 72.4076L129.665 72.4108L130.031 72.0703ZM127.305 72.1016L127.639 72.4738L127.642 72.471L127.305 72.1016ZM126.688 73.3906L126.19 73.338L126.188 73.3643V73.3906H126.688ZM126.688 79V79.5H127.188V79H126.688ZM125.234 79H124.734V79.5H125.234V79ZM121.484 72.8281L121.025 72.6297L120.984 72.7247V72.8281H121.484ZM121.484 79V79.5H121.984V79H121.484ZM120.039 79H119.539V79.5H120.039V79ZM120.039 70.5469V70.0469H119.539V70.5469H120.039ZM120.907 70.5677L120.946 71.5052L121.945 71.4636L121.906 70.5261L120.907 70.5677ZM121.826 71.8082C122.341 71.2028 123.031 70.8906 123.953 70.8906V69.8906C122.771 69.8906 121.789 70.3077 121.064 71.1606L121.826 71.8082ZM123.953 70.8906C124.482 70.8906 124.889 70.992 125.198 71.1661C125.502 71.3374 125.742 71.5955 125.915 71.9631L126.819 71.5369C126.566 70.9983 126.189 70.5766 125.689 70.2948C125.193 70.0158 124.607 69.8906 123.953 69.8906V70.8906ZM126.778 72.0346C127.014 71.6936 127.321 71.4165 127.705 71.2022L127.217 70.329C126.705 70.6148 126.282 70.9939 125.956 71.4654L126.778 72.0346ZM127.702 71.2034C128.069 71.0012 128.517 70.8906 129.062 70.8906V69.8906C128.379 69.8906 127.759 70.03 127.219 70.3278L127.702 71.2034ZM129.062 70.8906C129.904 70.8906 130.453 71.112 130.8 71.4733C131.151 71.8396 131.376 72.4329 131.391 73.3439L132.391 73.328C132.374 72.2754 132.112 71.3961 131.521 70.7806C130.925 70.1601 130.075 69.8906 129.062 69.8906V70.8906ZM131.391 73.3359V79H132.391V73.3359H131.391ZM131.891 78.5H130.445V79.5H131.891V78.5ZM130.945 79V73.4219H129.945V79H130.945ZM130.945 73.4219C130.945 72.7521 130.793 72.1557 130.397 71.7298L129.665 72.4108C129.821 72.5786 129.945 72.8833 129.945 73.4219H130.945ZM130.4 71.733C129.986 71.2796 129.351 71.1172 128.641 71.1172V72.1172C129.232 72.1172 129.524 72.2569 129.662 72.4076L130.4 71.733ZM128.641 71.1172C127.996 71.1172 127.425 71.315 126.968 71.7321L127.642 72.471C127.892 72.2423 128.213 72.1172 128.641 72.1172V71.1172ZM126.971 71.7294C126.511 72.1417 126.259 72.6923 126.19 73.338L127.185 73.4432C127.231 73.0056 127.39 72.6969 127.639 72.4738L126.971 71.7294ZM126.188 73.3906V79H127.188V73.3906H126.188ZM126.688 78.5H125.234V79.5H126.688V78.5ZM125.734 79V73.4609H124.734V79H125.734ZM125.734 73.4609C125.734 72.7719 125.566 72.1628 125.141 71.7284C124.713 71.2919 124.111 71.1172 123.43 71.1172V72.1172C123.951 72.1172 124.252 72.2497 124.426 72.4279C124.602 72.608 124.734 72.9208 124.734 73.4609H125.734ZM123.43 71.1172C122.885 71.1172 122.389 71.2336 121.968 71.4954C121.545 71.7589 121.234 72.1473 121.025 72.6297L121.943 73.0265C122.084 72.7017 122.271 72.4846 122.497 72.3444C122.724 72.2026 123.027 72.1172 123.43 72.1172V71.1172ZM120.984 72.8281V79H121.984V72.8281H120.984ZM121.484 78.5H120.039V79.5H121.484V78.5ZM120.539 79V70.5469H119.539V79H120.539ZM120.039 71.0469H121.406V70.0469H120.039V71.0469ZM135.523 78.1797L135.894 77.8444L135.023 76.881V78.1797H135.523ZM135.523 82.25V82.75H136.023V82.25H135.523ZM134.078 82.25H133.578V82.75H134.078V82.25ZM134.078 70.5469V70.0469H133.578V70.5469H134.078ZM135.398 70.5469L135.897 70.5095L135.862 70.0469H135.398V70.5469ZM135.469 71.4844L134.97 71.5218L135.065 72.7812L135.858 71.7984L135.469 71.4844ZM140.328 71.5391L139.932 71.8438L139.933 71.8455L140.328 71.5391ZM135.523 72.7812L135.088 72.5357L135.023 72.65V72.7812H135.523ZM135.523 76.8203H135.023V76.9509L135.087 77.0649L135.523 76.8203ZM139.156 77.1562L138.755 76.8575L138.755 76.8581L139.156 77.1562ZM140.719 74.8672C140.719 76.0791 140.442 77.0004 139.936 77.677L140.736 78.2761C141.407 77.3798 141.719 76.2282 141.719 74.8672H140.719ZM139.936 77.677C139.444 78.3339 138.797 78.6562 137.945 78.6562V79.6562C139.104 79.6562 140.051 79.1922 140.736 78.2761L139.936 77.677ZM137.945 78.6562C137.034 78.6562 136.372 78.3726 135.894 77.8444L135.153 78.515C135.852 79.2889 136.804 79.6562 137.945 79.6562V78.6562ZM135.023 78.1797V82.25H136.023V78.1797H135.023ZM135.523 81.75H134.078V82.75H135.523V81.75ZM134.578 82.25V70.5469H133.578V82.25H134.578ZM134.078 71.0469H135.398V70.0469H134.078V71.0469ZM134.9 70.5843L134.97 71.5218L135.967 71.447L135.897 70.5095L134.9 70.5843ZM135.858 71.7984C136.34 71.2016 137.006 70.8906 137.922 70.8906V69.8906C136.744 69.8906 135.775 70.3088 135.08 71.1703L135.858 71.7984ZM137.922 70.8906C138.792 70.8906 139.443 71.2085 139.932 71.8438L140.725 71.2343C140.036 70.3384 139.083 69.8906 137.922 69.8906V70.8906ZM139.933 71.8455C140.436 72.4939 140.719 73.4364 140.719 74.7344H141.719C141.719 73.3031 141.408 72.1155 140.723 71.2327L139.933 71.8455ZM140.719 74.7344V74.8672H141.719V74.7344H140.719ZM140.273 74.7031C140.273 73.684 140.057 72.8147 139.567 72.149L138.761 72.7417C139.084 73.1801 139.273 73.816 139.273 74.7031H140.273ZM139.567 72.149C139.063 71.4639 138.353 71.1172 137.492 71.1172V72.1172C138.048 72.1172 138.453 72.3226 138.761 72.7417L139.567 72.149ZM137.492 71.1172C136.433 71.1172 135.612 71.606 135.088 72.5357L135.959 73.0268C136.31 72.4044 136.802 72.1172 137.492 72.1172V71.1172ZM135.023 72.7812V76.8203H136.023V72.7812H135.023ZM135.087 77.0649C135.34 77.5159 135.673 77.8753 136.092 78.1195C136.511 78.3636 136.989 78.4766 137.508 78.4766V77.4766C137.136 77.4766 136.838 77.3968 136.595 77.2555C136.353 77.1142 136.139 76.8955 135.96 76.5757L135.087 77.0649ZM137.508 78.4766C138.356 78.4766 139.055 78.1308 139.558 77.4544L138.755 76.8581C138.445 77.2755 138.045 77.4766 137.508 77.4766V78.4766ZM139.557 77.455C140.06 76.7797 140.273 75.8366 140.273 74.7031H139.273C139.273 75.7363 139.075 76.4286 138.755 76.8575L139.557 77.455ZM144.633 79V79.5H145.133V79H144.633ZM143.188 79H142.688V79.5H143.188V79ZM143.188 70.5469V70.0469H142.688V70.5469H143.188ZM144.633 70.5469H145.133V70.0469H144.633V70.5469ZM143.281 67.7109L142.91 67.3757L142.904 67.3825L143.281 67.7109ZM143.281 68.8906L142.91 69.2252L142.916 69.2318L143.281 68.8906ZM144.633 78.5H143.188V79.5H144.633V78.5ZM143.688 79V70.5469H142.688V79H143.688ZM143.188 71.0469H144.633V70.0469H143.188V71.0469ZM144.133 70.5469V79H145.133V70.5469H144.133ZM143.57 68.3047C143.57 68.1787 143.605 68.1009 143.658 68.0393L142.904 67.3825C142.677 67.6439 142.57 67.9619 142.57 68.3047H143.57ZM143.652 68.0461C143.677 68.0183 143.738 67.9688 143.922 67.9688V66.9688C143.543 66.9688 143.177 67.0807 142.91 67.3758L143.652 68.0461ZM143.922 67.9688C144.106 67.9688 144.166 68.0183 144.191 68.0461L144.934 67.3758C144.667 67.0807 144.301 66.9688 143.922 66.9688V67.9688ZM144.191 68.0461C144.248 68.1082 144.281 68.1837 144.281 68.3047H145.281C145.281 67.9569 145.169 67.6366 144.934 67.3758L144.191 68.0461ZM144.281 68.3047C144.281 68.4257 144.248 68.4951 144.197 68.5495L144.928 69.2318C145.169 68.9737 145.281 68.6524 145.281 68.3047H144.281ZM144.197 68.5495C144.173 68.5751 144.11 68.625 143.922 68.625V69.625C144.296 69.625 144.66 69.5187 144.928 69.2318L144.197 68.5495ZM143.922 68.625C143.733 68.625 143.671 68.5751 143.647 68.5495L142.916 69.2318C143.183 69.5187 143.548 69.625 143.922 69.625V68.625ZM143.653 68.5561C143.605 68.5025 143.57 68.4308 143.57 68.3047H142.57C142.57 68.6473 142.677 68.9663 142.91 69.2251L143.653 68.5561ZM147.664 78.0312L147.302 78.376L147.303 78.3772L147.664 78.0312ZM147.062 72.5L146.613 72.2806L146.612 72.2821L147.062 72.5ZM148.406 70.9531L148.677 71.3732L148.678 71.3726L148.406 70.9531ZM152.844 71.4766L152.461 71.7985L152.844 71.4766ZM153.758 75.1875V75.6875H154.258V75.1875H153.758ZM148.031 75.1875V74.6875H147.519L147.531 75.2L148.031 75.1875ZM148.758 77.2109L148.386 77.5452L148.39 77.5491L148.758 77.2109ZM152.766 76.8359L153.073 76.4414L152.677 76.1331L152.37 76.5302L152.766 76.8359ZM153.648 77.5234L154.068 77.7961L154.318 77.4112L153.956 77.1289L153.648 77.5234ZM148.812 72.2188L149.177 72.5609L149.179 72.5586L148.812 72.2188ZM148.078 74L147.582 73.9392L147.513 74.5H148.078V74ZM152.312 74V74.5H152.812V74H152.312ZM152.312 73.8906H152.812V73.8765L152.812 73.8623L152.312 73.8906ZM151.719 72.1875L151.342 72.5161L151.344 72.5185L151.719 72.1875ZM150.461 78.6562C149.436 78.6562 148.639 78.3262 148.025 77.6853L147.303 78.3772C148.126 79.2363 149.194 79.6562 150.461 79.6562V78.6562ZM148.026 77.6865C147.414 77.043 147.086 76.1683 147.086 75.0078H146.086C146.086 76.3681 146.477 77.5091 147.302 78.376L148.026 77.6865ZM147.086 75.0078V74.7422H146.086V75.0078H147.086ZM147.086 74.7422C147.086 73.9678 147.232 73.2967 147.513 72.7179L146.612 72.2821C146.257 73.0158 146.086 73.8395 146.086 74.7422H147.086ZM147.512 72.7194C147.798 72.133 148.187 71.6897 148.677 71.3732L148.135 70.533C147.48 70.9562 146.973 71.544 146.613 72.2806L147.512 72.7194ZM148.678 71.3726C149.178 71.0487 149.709 70.8906 150.281 70.8906V69.8906C149.51 69.8906 148.791 70.1075 148.134 70.5336L148.678 71.3726ZM150.281 70.8906C151.259 70.8906 151.963 71.2063 152.461 71.7985L153.226 71.1546C152.506 70.299 151.501 69.8906 150.281 69.8906V70.8906ZM152.461 71.7985C152.968 72.4007 153.258 73.3055 153.258 74.5859H154.258C154.258 73.1685 153.938 72.0003 153.226 71.1546L152.461 71.7985ZM153.258 74.5859V75.1875H154.258V74.5859H153.258ZM153.758 74.6875H148.031V75.6875H153.758V74.6875ZM147.531 75.2C147.555 76.1272 147.827 76.9239 148.386 77.5452L149.13 76.8767C148.761 76.4667 148.55 75.9144 148.531 75.175L147.531 75.2ZM148.39 77.5491C148.957 78.1669 149.686 78.4766 150.539 78.4766V77.4766C149.954 77.4766 149.496 77.2758 149.126 76.8727L148.39 77.5491ZM150.539 78.4766C151.117 78.4766 151.642 78.3583 152.089 78.095L151.582 77.2331C151.322 77.3865 150.982 77.4766 150.539 77.4766V78.4766ZM152.089 78.095C152.502 77.8526 152.859 77.5329 153.161 77.1417L152.37 76.5302C152.141 76.8265 151.879 77.0589 151.582 77.2331L152.089 78.095ZM152.458 77.2304L153.341 77.9179L153.956 77.1289L153.073 76.4414L152.458 77.2304ZM153.229 77.2507C152.623 78.1829 151.727 78.6562 150.461 78.6562V79.6562C152.029 79.6562 153.257 79.0411 154.068 77.7961L153.229 77.2507ZM150.281 71.0781C149.559 71.0781 148.936 71.3495 148.446 71.8789L149.179 72.5586C149.48 72.2338 149.837 72.0781 150.281 72.0781V71.0781ZM148.448 71.8766C147.959 72.3981 147.684 73.103 147.582 73.9392L148.574 74.0608C148.66 73.3657 148.875 72.8832 149.177 72.5609L148.448 71.8766ZM148.078 74.5H152.312V73.5H148.078V74.5ZM152.812 74V73.8906H151.812V74H152.812ZM152.812 73.8623C152.766 73.0574 152.545 72.3682 152.094 71.8565L151.344 72.5185C151.6 72.8089 151.776 73.2551 151.813 73.9189L152.812 73.8623ZM152.096 71.8589C151.634 71.3299 151.01 71.0781 150.281 71.0781V72.0781C150.76 72.0781 151.095 72.2326 151.342 72.5161L152.096 71.8589ZM159.914 75.8516L159.614 76.2516L159.622 76.2575L159.914 75.8516ZM158.375 75.2891L158.27 75.778L158.271 75.7781L158.375 75.2891ZM156.633 74.7266L156.405 75.1716L156.407 75.1727L156.633 74.7266ZM155.68 73.9453L155.265 74.2243L155.268 74.2292L155.68 73.9453ZM156.25 71.1094L155.934 70.7216L155.933 70.723L156.25 71.1094ZM160.828 71.1328L160.508 71.5169L160.51 71.5183L160.828 71.1328ZM161.727 73.0312V73.5312H162.227V73.0312H161.727ZM160.273 73.0312H159.773V73.5312H160.273V73.0312ZM159.766 72.0078L159.44 72.387L159.443 72.3895L159.766 72.0078ZM158.727 74.1172L158.617 74.605L158.618 74.6052L158.727 74.1172ZM161.477 75.5078L161.062 75.7868L161.067 75.7945L161.477 75.5078ZM160.898 78.4766L161.198 78.8766L161.201 78.8749L160.898 78.4766ZM155.523 77.7969L155.109 78.0766L155.113 78.0823L155.523 77.7969ZM155.086 76.3984V75.8984H154.586V76.3984H155.086ZM156.531 76.3984L157.031 76.3716L157.005 75.8984H156.531V76.3984ZM157.109 77.5547L156.798 77.9457L156.804 77.9506L157.109 77.5547ZM159.859 77.6484L160.137 78.0645L160.138 78.0635L159.859 77.6484ZM160.859 76.7578C160.859 76.2192 160.644 75.7604 160.206 75.4457L159.622 76.2575C159.778 76.3698 159.859 76.5152 159.859 76.7578H160.859ZM160.214 75.4516C159.83 75.1635 159.225 74.9587 158.479 74.8L158.271 75.7781C158.994 75.9319 159.415 76.1022 159.614 76.2516L160.214 75.4516ZM158.48 74.8002C157.773 74.6486 157.238 74.4723 156.859 74.2804L156.407 75.1727C156.892 75.4183 157.519 75.617 158.27 75.778L158.48 74.8002ZM156.861 74.2815C156.485 74.0893 156.24 73.8777 156.091 73.6614L155.268 74.2292C155.536 74.6171 155.926 74.9264 156.405 75.1716L156.861 74.2815ZM156.095 73.6663C155.955 73.4582 155.875 73.1993 155.875 72.8672H154.875C154.875 73.3684 154.998 73.8283 155.265 74.2243L156.095 73.6663ZM155.875 72.8672C155.875 72.3388 156.088 71.8896 156.567 71.4957L155.933 70.723C155.245 71.2874 154.875 72.0102 154.875 72.8672H155.875ZM156.566 71.4971C157.048 71.1044 157.68 70.8906 158.5 70.8906V69.8906C157.498 69.8906 156.629 70.156 155.934 70.7216L156.566 71.4971ZM158.5 70.8906C159.37 70.8906 160.024 71.1137 160.508 71.5169L161.148 70.7487C160.445 70.1624 159.546 69.8906 158.5 69.8906V70.8906ZM160.51 71.5183C160.995 71.919 161.227 72.4109 161.227 73.0312H162.227C162.227 72.1099 161.859 71.3362 161.147 70.7473L160.51 71.5183ZM161.727 72.5312H160.273V73.5312H161.727V72.5312ZM160.773 73.0312C160.773 72.4696 160.524 71.9947 160.089 71.6261L159.443 72.3895C159.684 72.5938 159.773 72.8013 159.773 73.0312H160.773ZM160.092 71.6286C159.653 71.2519 159.11 71.0781 158.5 71.0781V72.0781C158.911 72.0781 159.211 72.1908 159.44 72.387L160.092 71.6286ZM158.5 71.0781C157.907 71.0781 157.374 71.2068 156.96 71.5261L157.571 72.3177C157.751 72.1786 158.041 72.0781 158.5 72.0781V71.0781ZM156.96 71.5261C156.543 71.8483 156.32 72.293 156.32 72.8203H157.32C157.32 72.608 157.395 72.4537 157.571 72.3177L156.96 71.5261ZM156.32 72.8203C156.32 73.3265 156.534 73.7543 156.964 74.0302L157.504 73.1885C157.382 73.1102 157.32 73.012 157.32 72.8203H156.32ZM156.964 74.0302C157.321 74.2588 157.894 74.4427 158.617 74.605L158.836 73.6293C158.121 73.4687 157.7 73.3141 157.504 73.1885L156.964 74.0302ZM158.618 74.6052C159.319 74.7616 159.862 74.9432 160.261 75.1425L160.708 74.2481C160.211 73.9995 159.582 73.7957 158.835 73.6292L158.618 74.6052ZM160.261 75.1425C160.655 75.3394 160.909 75.5595 161.062 75.7867L161.892 75.2289C161.617 74.8207 161.21 74.4991 160.708 74.2481L160.261 75.1425ZM161.067 75.7945C161.216 76.0082 161.305 76.286 161.305 76.6562H162.305C162.305 76.1203 162.174 75.6325 161.886 75.2211L161.067 75.7945ZM161.305 76.6562C161.305 77.2543 161.076 77.714 160.596 78.0782L161.201 78.8749C161.929 78.3225 162.305 77.5686 162.305 76.6562H161.305ZM160.598 78.0766C160.102 78.4488 159.432 78.6562 158.547 78.6562V79.6562C159.589 79.6562 160.486 79.4106 161.198 78.8766L160.598 78.0766ZM158.547 78.6562C157.929 78.6562 157.403 78.5471 156.959 78.3426L156.541 79.2511C157.138 79.5258 157.811 79.6562 158.547 79.6562V78.6562ZM156.959 78.3426C156.511 78.1364 156.175 77.858 155.934 77.5115L155.113 78.0823C155.466 78.5899 155.948 78.9782 156.541 79.2511L156.959 78.3426ZM155.938 77.5172C155.699 77.1638 155.586 76.7943 155.586 76.3984H154.586C154.586 77.0025 154.764 77.5654 155.109 78.0765L155.938 77.5172ZM155.086 76.8984H156.531V75.8984H155.086V76.8984ZM156.032 76.4253C156.065 77.0433 156.32 77.5648 156.798 77.9457L157.421 77.1637C157.18 76.9717 157.049 76.7223 157.031 76.3716L156.032 76.4253ZM156.804 77.9506C157.279 78.3167 157.875 78.4766 158.547 78.4766V77.4766C158.031 77.4766 157.669 77.3552 157.415 77.1588L156.804 77.9506ZM158.547 78.4766C159.156 78.4766 159.7 78.3554 160.137 78.0645L159.582 77.2324C159.362 77.379 159.032 77.4766 158.547 77.4766V78.4766ZM160.138 78.0635C160.596 77.7561 160.859 77.3104 160.859 76.7578H159.859C159.859 76.9448 159.79 77.0929 159.581 77.2334L160.138 78.0635Z" fill="white"/>
<path d="M86.7998 114.4C92.9998 126.6 94.9998 131.6 95.9998 134L102 154.6M100.6 123.2C104.847 133.922 103.296 141.57 102 154.6M102 154.6C105 148.2 109.041 151.56 112.4 136.6L114.8 118.8" stroke="black" stroke-width="2"/>
<ellipse cx="86.9999" cy="103.4" rx="10.6" ry="12" fill="#0085FF"/>
<ellipse cx="113.2" cy="106.8" rx="10.4" ry="12.2" fill="#E965FF"/>
<ellipse cx="101.4" cy="111.8" rx="10.2" ry="11.6" fill="#F15D5D"/>
</svg>
