<svg width="150" height="150" viewBox="0 0 150 150" fill="none" xmlns="http://www.w3.org/2000/svg">
<path fill-rule="evenodd" clip-rule="evenodd" d="M75 145.797L79.1108 142.208C113.679 112.023 131.25 85.6673 131.25 62.5C131.25 29.6917 105.643 6.25 75 6.25C44.3566 6.25 18.75 29.6917 18.75 62.5C18.75 85.6673 36.3207 112.023 70.8892 142.208L75 145.797ZM75 129.146C45.6663 102.71 31.25 80.3077 31.25 62.5C31.25 36.8537 51.0257 18.75 75 18.75C98.9743 18.75 118.75 36.8537 118.75 62.5C118.75 80.3077 104.334 102.71 75 129.146ZM75 31.25C92.2589 31.25 106.25 45.2411 106.25 62.5C106.25 79.7589 92.2589 93.75 75 93.75C57.7411 93.75 43.75 79.7589 43.75 62.5C43.75 45.2411 57.7411 31.25 75 31.25ZM56.25 62.5C56.25 52.1447 64.6447 43.75 75 43.75C85.3553 43.75 93.75 52.1447 93.75 62.5C93.75 72.8553 85.3553 81.25 75 81.25C64.6447 81.25 56.25 72.8553 56.25 62.5Z" fill="black"/>
</svg>
